<?xml version="1.0" standalone="no"?><!DOCTYPE svg PUBLIC "-//W3C//DTD SVG 1.1//EN" "http://www.w3.org/Graphics/SVG/1.1/DTD/svg11.dtd"><svg t="1506575680852" class="icon" style="" viewBox="0 0 1026 1024" version="1.1" xmlns="http://www.w3.org/2000/svg" p-id="1320" xmlns:xlink="http://www.w3.org/1999/xlink" width="32.0625" height="32"><defs><style type="text/css"></style></defs><path d="M2 330v-22.8C2 243.61 54.776 192 120.154 192h787.692C973.226 192 1026 243.61 1026 307.2V330H2z m0 80v434.8C2 908.39 54.776 960 120.154 960h787.692c65.38 0 118.154-51.61 118.154-115.2V410H2z" p-id="1321" fill="#3399ff"></path><path d="M327.82 64H124.18C56.576 64 2 113.152 2 173.714V320s12.22-109.714 122.18-109.714H450V173.714C450 113.152 395.426 64 327.82 64" p-id="1322" fill="#3399ff"></path></svg>